<?xml version="1.0" standalone="no"?>
<!DOCTYPE svg PUBLIC "-//W3C//DTD SVG 20010904//EN"
 "http://www.w3.org/TR/2001/REC-SVG-20010904/DTD/svg10.dtd">
<svg version="1.0" xmlns="http://www.w3.org/2000/svg"
 width="2268.000000pt" height="2268.000000pt" viewBox="0 0 2268.000000 2268.000000"
 preserveAspectRatio="xMidYMid meet">
<metadata>
Created by potrace 1.14, written by Peter Selinger 2001-2017
</metadata>
<g transform="translate(0.000000,2268.000000) scale(0.100000,-0.100000)"
fill="#000000" stroke="none">
<path d="M3700 20253 c-494 -47 -948 -277 -1269 -644 -100 -114 -103 -118
-170 -220 -118 -178 -225 -428 -267 -624 -57 -258 -63 -552 -19 -775 3 -14 8
-38 11 -55 13 -78 55 -217 94 -315 54 -137 195 -385 266 -467 10 -12 30 -37
44 -54 14 -18 61 -70 105 -115 295 -301 686 -500 1100 -560 193 -27 439 -24
620 10 59 11 75 15 171 41 145 38 360 129 469 198 244 154 400 293 554 496 61
80 161 241 193 311 38 83 66 148 83 195 10 28 20 53 24 57 6 7 51 -3 261 -62
63 -17 122 -33 130 -35 8 -3 47 -13 85 -24 119 -33 183 -50 238 -65 28 -8 95
-26 147 -41 52 -15 226 -63 385 -107 160 -44 346 -95 415 -114 69 -19 132 -37
140 -39 134 -36 338 -91 420 -114 290 -82 401 -112 417 -116 10 -1 59 -15 109
-29 50 -15 100 -29 110 -31 10 -2 109 -30 219 -60 292 -82 334 -94 400 -111
60 -15 155 -42 250 -69 80 -23 858 -237 875 -240 15 -4 191 -52 285 -79 67
-20 272 -76 420 -116 173 -46 164 -41 158 -92 -4 -24 -6 -90 -5 -148 1 -93 5
-126 28 -229 3 -13 18 -58 34 -100 114 -296 384 -522 700 -586 81 -17 253 -23
315 -11 17 3 46 8 65 11 130 22 310 111 426 208 133 113 258 308 299 467 9 36
19 74 22 85 10 37 12 290 2 335 -30 144 -72 250 -144 361 -124 191 -334 343
-552 398 -113 29 -127 31 -243 31 -109 0 -122 -1 -229 -26 -271 -62 -500 -246
-630 -508 -29 -57 -48 -85 -57 -82 -8 3 -188 53 -401 111 -363 99 -494 136
-668 185 -39 11 -79 22 -90 25 -11 2 -63 16 -115 31 -52 14 -133 37 -180 49
-83 23 -175 48 -435 120 -71 20 -179 50 -240 66 -60 17 -132 37 -160 44 -27 8
-99 28 -160 45 -60 17 -118 33 -128 35 -17 4 -199 54 -512 141 -66 18 -253 69
-415 114 -162 45 -317 88 -345 95 -27 8 -198 56 -380 105 -356 98 -571 157
-815 225 -148 40 -209 57 -220 59 -30 6 -177 51 -182 55 -4 3 -3 24 2 46 27
122 35 205 35 380 0 206 -9 290 -52 465 -140 580 -555 1075 -1096 1306 -152
65 -349 124 -466 139 -30 4 -63 9 -75 12 -25 5 -356 11 -406 6z"/>
<path d="M18007 18614 c-1 -1 -33 -5 -72 -9 -462 -44 -891 -326 -1127 -740
-46 -81 -119 -253 -134 -315 -4 -19 -8 -37 -9 -40 -4 -18 -26 -119 -29 -135
-22 -114 -22 -386 -1 -465 2 -8 7 -31 10 -50 23 -138 100 -342 178 -471 91
-148 238 -316 362 -410 162 -123 373 -227 535 -264 160 -36 230 -45 373 -45
53 0 77 -4 78 -13 0 -6 2 -21 3 -32 2 -11 6 -49 10 -85 4 -36 9 -81 11 -100 4
-35 22 -204 30 -290 3 -25 7 -63 10 -85 2 -22 7 -62 10 -90 3 -27 8 -63 10
-80 3 -16 7 -61 10 -100 4 -38 8 -81 10 -95 4 -26 13 -104 20 -182 3 -27 7
-69 10 -95 3 -27 8 -68 10 -92 2 -24 7 -60 9 -80 3 -20 8 -65 11 -101 4 -36 8
-76 10 -90 2 -14 7 -54 10 -90 3 -36 7 -74 9 -85 2 -11 7 -56 11 -99 4 -43 8
-88 11 -99 3 -19 7 -59 19 -182 2 -27 7 -70 10 -95 6 -52 13 -116 30 -280 4
-30 8 -73 11 -95 7 -61 14 -125 19 -184 3 -29 7 -63 10 -75 2 -11 7 -52 10
-91 4 -38 8 -83 10 -100 2 -16 7 -57 10 -90 3 -33 8 -73 10 -90 2 -16 7 -57
10 -90 3 -33 8 -78 11 -100 5 -48 13 -124 19 -180 9 -90 16 -152 20 -185 3
-19 7 -55 9 -80 3 -25 7 -76 11 -115 4 -38 8 -77 10 -85 2 -8 7 -51 11 -95 3
-44 8 -88 10 -98 2 -10 6 -44 9 -75 3 -31 8 -75 10 -97 2 -22 7 -60 10 -85 2
-25 7 -72 10 -105 4 -33 8 -71 10 -85 2 -14 6 -52 9 -85 10 -98 17 -168 21
-200 2 -16 7 -52 10 -80 3 -27 7 -68 10 -90 3 -22 7 -65 10 -95 7 -75 16 -150
20 -180 2 -14 6 -56 10 -95 8 -85 15 -152 20 -185 2 -14 6 -59 10 -100 3 -41
8 -82 10 -90 2 -8 7 -47 10 -87 4 -40 8 -85 10 -100 2 -15 7 -57 10 -93 4 -36
8 -76 10 -90 2 -14 6 -54 10 -90 4 -36 8 -76 10 -90 2 -14 7 -58 10 -99 4 -41
8 -82 10 -90 1 -9 6 -50 10 -91 4 -41 9 -82 10 -91 2 -9 6 -52 10 -95 4 -43 9
-86 10 -94 2 -8 6 -44 9 -80 4 -36 9 -81 11 -100 3 -19 7 -60 10 -90 3 -30 9
-91 15 -135 5 -44 12 -109 15 -145 3 -36 8 -76 10 -90 2 -14 7 -54 10 -90 3
-36 8 -76 10 -90 3 -23 14 -124 20 -195 2 -16 6 -52 9 -80 8 -64 14 -116 21
-185 10 -101 15 -145 20 -180 6 -49 17 -149 20 -185 5 -56 17 -170 20 -195 4
-33 13 -111 20 -180 3 -30 8 -71 10 -90 3 -19 7 -59 10 -87 7 -76 15 -152 20
-193 3 -19 7 -63 10 -97 3 -34 8 -72 10 -85 3 -12 8 -56 11 -97 3 -42 8 -83 9
-93 2 -10 7 -55 11 -101 3 -45 8 -85 10 -88 1 -3 6 -38 9 -77 3 -40 8 -81 10
-91 2 -10 6 -54 10 -97 3 -43 8 -90 10 -104 3 -14 7 -52 11 -85 3 -33 7 -76
10 -95 2 -19 7 -62 10 -95 3 -33 7 -71 9 -85 3 -14 8 -64 11 -111 l7 -87 -44
-8 c-24 -4 -46 -8 -49 -9 -3 0 -36 -11 -74 -23 -343 -113 -630 -408 -740 -759
-85 -273 -66 -578 54 -838 26 -57 106 -194 119 -205 3 -3 18 -21 32 -40 38
-50 114 -124 189 -185 278 -223 660 -303 1015 -214 357 90 655 353 795 702 33
82 65 211 75 297 7 62 8 256 2 268 -3 4 -8 30 -11 57 -22 169 -108 367 -225
520 -218 286 -569 460 -923 458 -31 0 -56 2 -56 6 2 7 -12 166 -17 194 -2 9
-6 50 -10 90 -4 39 -8 79 -10 87 -2 8 -6 49 -10 90 -4 41 -8 82 -10 90 -1 8
-6 51 -10 94 -4 43 -8 86 -10 95 -1 9 -6 50 -10 91 -3 41 -8 82 -10 90 -2 8
-7 49 -10 90 -4 41 -8 86 -10 100 -2 14 -6 54 -10 90 -4 36 -8 77 -11 92 -2
15 -6 55 -9 90 -3 35 -7 74 -9 88 -4 21 -10 73 -31 280 -2 14 -6 57 -10 95 -3
39 -8 80 -10 93 -2 13 -7 53 -10 90 -3 37 -8 81 -10 97 -3 17 -7 59 -10 95 -4
36 -8 75 -10 88 -2 13 -7 53 -11 90 -3 37 -8 78 -9 92 -2 14 -7 61 -10 105 -4
44 -9 83 -11 86 -2 3 -6 41 -10 84 -3 44 -7 87 -9 97 -2 9 -6 48 -10 85 -3 37
-8 79 -10 93 -2 14 -7 57 -11 95 -3 39 -8 81 -10 95 -2 14 -6 54 -9 90 -3 36
-8 76 -10 90 -4 32 -13 109 -20 185 -3 33 -8 76 -10 95 -14 119 -17 148 -30
265 -3 28 -7 70 -10 95 -3 25 -7 68 -10 95 -2 28 -9 93 -15 145 -6 52 -13 118
-16 145 -3 28 -7 64 -9 80 -2 17 -6 55 -10 85 -3 30 -8 75 -10 100 -3 25 -8
68 -10 95 -3 28 -7 66 -9 85 -3 19 -8 62 -11 95 -9 87 -15 135 -20 175 -2 19
-7 64 -10 100 -3 36 -8 76 -10 90 -3 14 -7 52 -10 85 -8 94 -16 168 -20 195
-2 14 -7 54 -10 90 -3 36 -8 76 -10 90 -2 14 -7 50 -10 80 -11 115 -15 156
-19 190 -3 19 -8 62 -11 95 -3 33 -8 78 -10 100 -3 22 -9 85 -15 140 -10 97
-14 124 -24 210 -3 22 -8 69 -11 105 -4 36 -8 76 -10 90 -2 14 -7 59 -10 100
-4 41 -8 82 -10 90 -2 9 -6 47 -9 85 -4 39 -8 81 -11 95 -2 14 -7 57 -10 95
-3 39 -8 81 -10 95 -2 14 -7 52 -10 85 -3 33 -8 76 -10 95 -8 71 -25 226 -30
275 -5 57 -12 118 -21 190 -3 28 -7 68 -9 90 -6 72 -15 150 -19 175 -3 14 -8
57 -11 95 -4 39 -8 84 -10 100 -2 17 -7 59 -10 95 -4 36 -9 73 -11 83 -2 10
-6 49 -9 85 -3 37 -7 78 -9 92 -3 14 -7 57 -11 95 -8 88 -16 160 -30 285 -3
19 -7 60 -10 90 -3 30 -8 73 -10 95 -18 156 -20 176 -30 280 -3 33 -8 76 -10
95 -9 66 -14 115 -20 170 -3 30 -7 71 -9 90 -3 19 -7 64 -11 100 -8 82 -14
136 -20 180 -2 19 -7 64 -10 100 -3 36 -7 76 -10 90 -2 14 -7 52 -10 85 -5 53
-14 139 -30 286 l-6 46 63 13 c158 31 343 106 488 198 333 212 564 543 649
928 89 407 4 825 -240 1174 -78 112 -256 283 -377 364 -202 133 -433 218 -657
241 -61 6 -243 13 -248 9z"/>
<path d="M13738 9395 c-2 -1 -36 -5 -76 -9 -41 -3 -77 -8 -81 -10 -3 -2 -26
-7 -50 -11 -140 -21 -399 -140 -520 -240 -282 -231 -453 -530 -497 -870 -13
-103 -5 -317 16 -410 16 -68 14 -73 -32 -86 -24 -6 -68 -19 -98 -29 -30 -10
-156 -50 -280 -90 -124 -39 -263 -84 -310 -100 -88 -29 -351 -113 -360 -115
-10 -2 -595 -189 -670 -215 -30 -10 -143 -46 -250 -79 -107 -34 -213 -68 -235
-76 -22 -7 -121 -39 -220 -70 -99 -31 -211 -67 -250 -80 -38 -13 -169 -55
-290 -93 -121 -39 -341 -110 -490 -157 -148 -48 -310 -100 -360 -115 -142 -44
-346 -110 -390 -125 -43 -15 -397 -128 -405 -130 -3 0 -21 -6 -40 -12 -19 -7
-156 -50 -305 -98 -148 -47 -281 -90 -295 -95 -14 -5 -106 -34 -205 -65 -99
-32 -207 -66 -240 -77 -33 -10 -213 -68 -400 -128 -187 -60 -353 -113 -370
-119 -16 -5 -131 -42 -255 -81 -124 -39 -256 -82 -295 -95 -220 -73 -368 -116
-375 -108 -5 4 -30 51 -57 103 -172 337 -482 573 -863 657 -52 12 -125 17
-240 17 -205 1 -255 -6 -415 -59 -256 -84 -495 -270 -648 -502 -37 -56 -67
-104 -67 -107 0 -3 -13 -33 -29 -68 -75 -159 -109 -334 -105 -533 3 -145 3
-151 23 -250 57 -277 235 -554 470 -731 323 -243 747 -317 1131 -197 252 79
471 231 627 438 53 70 143 220 143 238 0 7 4 17 9 22 11 13 58 150 66 194 3
19 8 37 10 41 2 4 6 20 9 36 2 16 7 48 11 71 7 48 8 267 1 299 -5 26 -19 122
-20 148 -1 17 30 30 214 89 456 146 720 231 835 267 303 97 579 185 670 215
55 18 181 58 280 89 99 32 241 77 315 101 74 24 248 80 385 124 265 84 643
206 990 317 116 37 215 69 220 70 6 1 30 9 55 17 49 16 437 141 590 189 52 16
113 36 135 43 22 8 159 52 305 99 686 219 922 295 1240 397 124 40 227 73 230
74 10 2 188 59 380 121 553 178 584 187 588 174 29 -86 152 -285 233 -376 141
-158 359 -304 549 -368 527 -177 1093 -13 1442 419 126 157 236 397 263 575
32 216 26 372 -21 558 -57 226 -161 409 -336 592 -171 179 -439 320 -695 364
-74 13 -287 28 -295 21z"/>
</g>
</svg>
